<svg width="150" height="150" viewBox="0 0 150 150" fill="none" xmlns="http://www.w3.org/2000/svg">
<rect width="150" height="150" rx="75" fill="url(#paint0_linear_1106_1798)"/>
<rect x="19.5" y="53.5" width="111.886" height="42.839" rx="4.5" stroke="white"/>
<path d="M119.147 89.2997L118.198 85.6892H111.939L110.964 89.2997H105.245L111.531 69.9556H118.475L124.84 89.2997H119.147ZM117.118 81.4198L116.288 78.2572C116.2 77.9146 116.072 77.4271 115.905 76.7946C115.739 76.1533 115.572 75.4944 115.405 74.818C115.247 74.1328 115.124 73.5706 115.036 73.1313C114.957 73.5706 114.842 74.1152 114.693 74.7653C114.553 75.4066 114.403 76.0435 114.245 76.676C114.096 77.3085 113.964 77.8356 113.85 78.2572L113.02 81.4198H117.118Z" fill="white"/>
<path d="M103.861 79.2587C103.861 81.4988 103.443 83.3612 102.609 84.8458C101.774 86.3305 100.597 87.4461 99.0774 88.1928C97.5664 88.9308 95.7875 89.2997 93.7406 89.2997H87.5078V70.0347H94.1755C96.2487 70.0347 98.0056 70.3905 99.4463 71.102C100.887 71.8136 101.981 72.8546 102.727 74.225C103.483 75.5955 103.861 77.2733 103.861 79.2587ZM98.458 79.4432C98.458 78.2748 98.2999 77.3085 97.9837 76.5442C97.6762 75.7711 97.2106 75.1957 96.5869 74.818C95.9632 74.4315 95.1769 74.2382 94.2282 74.2382H92.7128V85.0303H93.8724C95.4537 85.0303 96.6132 84.5735 97.3512 83.6599C98.0891 82.7375 98.458 81.3319 98.458 79.4432Z" fill="white"/>
<path d="M83.3446 89.2997H76.5188L69.4822 75.7272H69.3636C69.4075 76.1401 69.4471 76.6364 69.4822 77.2162C69.5173 77.796 69.5481 78.389 69.5744 78.9952C69.6008 79.5925 69.614 80.1328 69.614 80.616V89.2997H65.002V70.0347H71.8014L78.8116 83.4227H78.8907C78.8643 83.001 78.838 82.5135 78.8116 81.96C78.7853 81.3978 78.7589 80.8312 78.7326 80.2602C78.715 79.6892 78.7062 79.184 78.7062 78.7448V70.0347H83.3446V89.2997Z" fill="white"/>
<path d="M57.2144 89.2997L56.2657 85.6892H50.0065L49.0314 89.2997H43.3125L49.598 69.9556H56.5424L62.907 89.2997H57.2144ZM55.1851 81.4198L54.355 78.2572C54.2671 77.9146 54.1397 77.4271 53.9728 76.7946C53.8059 76.1533 53.639 75.4944 53.4721 74.818C53.314 74.1328 53.191 73.5706 53.1031 73.1313C53.0241 73.5706 52.9099 74.1152 52.7605 74.7653C52.62 75.4066 52.4706 76.0435 52.3125 76.676C52.1632 77.3085 52.0314 77.8356 51.9172 78.2572L51.087 81.4198H55.1851Z" fill="white"/>
<path d="M41.9291 79.2587C41.9291 81.4988 41.5118 83.3612 40.6772 84.8458C39.8427 86.3305 38.6655 87.4461 37.1457 88.1928C35.6348 88.9308 33.8558 89.2997 31.809 89.2997H25.5762V70.0347H32.2438C34.317 70.0347 36.074 70.3905 37.5147 71.102C38.9554 71.8136 40.0491 72.8546 40.7958 74.225C41.5513 75.5955 41.9291 77.2733 41.9291 79.2587ZM36.5264 79.4432C36.5264 78.2748 36.3683 77.3085 36.052 76.5442C35.7446 75.7711 35.279 75.1957 34.6552 74.818C34.0315 74.4315 33.2453 74.2382 32.2965 74.2382H30.7812V85.0303H31.9407C33.522 85.0303 34.6816 84.5735 35.4195 83.6599C36.1574 82.7375 36.5264 81.3319 36.5264 79.4432Z" fill="white"/>
<path d="M121.786 64.7417L121.183 63.0297H118.826L118.223 64.7417H117.156L119.45 58.5516H120.572L122.861 64.7417H121.786ZM120.922 62.1611L120.336 60.4744C120.313 60.4013 120.281 60.2987 120.239 60.1666C120.196 60.0316 120.154 59.8953 120.112 59.7576C120.07 59.617 120.035 59.4989 120.007 59.4033C119.979 59.5186 119.943 59.6479 119.901 59.7913C119.862 59.9318 119.823 60.064 119.783 60.1877C119.747 60.3113 119.719 60.4069 119.699 60.4744L119.109 62.1611H120.922Z" fill="white"/>
<path d="M108.692 64.7417V58.5769H109.704V63.8815H112.323V64.7417H108.692Z" fill="white"/>
<path d="M102.791 61.6508C102.791 62.1259 102.73 62.5588 102.61 62.9496C102.492 63.3375 102.313 63.672 102.074 63.9531C101.835 64.2314 101.536 64.4465 101.176 64.5983C100.816 64.7501 100.394 64.826 99.9109 64.826C99.419 64.826 98.9917 64.7501 98.629 64.5983C98.2692 64.4465 97.9698 64.23 97.7309 63.9489C97.4947 63.6678 97.3176 63.3319 97.1996 62.9411C97.0815 62.5504 97.0225 62.1175 97.0225 61.6424C97.0225 61.0071 97.1265 60.4533 97.3345 59.981C97.5453 59.5059 97.8644 59.1377 98.2917 58.8762C98.7218 58.612 99.2643 58.4799 99.9193 58.4799C100.56 58.4799 101.093 58.6106 101.517 58.872C101.942 59.1335 102.26 59.5017 102.47 59.9768C102.684 60.4491 102.791 61.0071 102.791 61.6508ZM98.0851 61.6508C98.0851 62.1259 98.1497 62.5377 98.279 62.8863C98.4083 63.2321 98.6065 63.4991 98.8736 63.6875C99.1435 63.873 99.4892 63.9658 99.9109 63.9658C100.335 63.9658 100.681 63.873 100.948 63.6875C101.215 63.4991 101.412 63.2321 101.539 62.8863C101.665 62.5377 101.728 62.1259 101.728 61.6508C101.728 60.9284 101.584 60.3633 101.294 59.9557C101.007 59.5453 100.549 59.3401 99.9193 59.3401C99.4977 59.3401 99.1505 59.4328 98.8778 59.6184C98.6079 59.8039 98.4083 60.0696 98.279 60.4153C98.1497 60.7583 98.0851 61.1701 98.0851 61.6508Z" fill="white"/>
<path d="M89.8939 59.3485C89.5987 59.3485 89.3344 59.4019 89.1011 59.5087C88.8706 59.6156 88.6752 59.7702 88.515 59.9726C88.3548 60.1722 88.2325 60.4153 88.1481 60.7021C88.0638 60.986 88.0216 61.3065 88.0216 61.6635C88.0216 62.1414 88.0891 62.5532 88.224 62.899C88.359 63.2419 88.5642 63.5062 88.8397 63.6917C89.1152 63.8744 89.4637 63.9658 89.8854 63.9658C90.1469 63.9658 90.4013 63.9405 90.6486 63.8899C90.896 63.8393 91.1518 63.7704 91.4161 63.6833V64.5435C91.1659 64.6419 90.9129 64.7135 90.6571 64.7585C90.4013 64.8035 90.1061 64.826 89.7716 64.826C89.1419 64.826 88.619 64.6953 88.203 64.4338C87.7897 64.1724 87.4805 63.8041 87.2753 63.3291C87.0729 62.854 86.9717 62.2974 86.9717 61.6593C86.9717 61.1926 87.0363 60.7653 87.1656 60.3774C87.295 59.9894 87.4833 59.6549 87.7307 59.3738C87.9781 59.0899 88.2831 58.872 88.6457 58.7202C89.0112 58.5656 89.4286 58.4883 89.8981 58.4883C90.2073 58.4883 90.5109 58.5234 90.8089 58.5937C91.1097 58.6612 91.388 58.7582 91.6438 58.8847L91.2896 59.7196C91.0759 59.6184 90.8524 59.5312 90.6191 59.4581C90.3858 59.385 90.144 59.3485 89.8939 59.3485Z" fill="white"/>
<path d="M81.5005 63.0634C81.5005 63.4289 81.4106 63.7437 81.2307 64.008C81.0536 64.2722 80.7978 64.4746 80.4632 64.6152C80.1315 64.7557 79.7351 64.826 79.2741 64.826C79.0492 64.826 78.8342 64.8133 78.629 64.788C78.4238 64.7627 78.2298 64.7262 78.0471 64.6784C77.8672 64.6278 77.7027 64.5674 77.5537 64.4971V63.5441C77.8039 63.6538 78.0836 63.7535 78.3928 63.8435C78.7021 63.9306 79.0169 63.9742 79.3374 63.9742C79.5988 63.9742 79.8153 63.9405 79.9867 63.873C80.161 63.8027 80.2903 63.7044 80.3747 63.5778C80.459 63.4485 80.5012 63.2981 80.5012 63.1267C80.5012 62.9439 80.452 62.7893 80.3536 62.6628C80.2552 62.5363 80.1062 62.4211 79.9066 62.3171C79.7098 62.2102 79.4625 62.0964 79.1645 61.9755C78.9621 61.894 78.7681 61.8012 78.5826 61.6972C78.3999 61.5932 78.2368 61.4709 78.0934 61.3304C77.9501 61.1898 77.8362 61.0239 77.7519 60.8328C77.6704 60.6388 77.6296 60.4111 77.6296 60.1497C77.6296 59.8011 77.7125 59.5031 77.8784 59.2557C78.0471 59.0084 78.2832 58.8186 78.5868 58.6865C78.8932 58.5544 79.2502 58.4883 79.6578 58.4883C79.9811 58.4883 80.2847 58.522 80.5686 58.5895C80.8554 58.657 81.1365 58.7525 81.412 58.8762L81.0915 59.6901C80.8385 59.586 80.5925 59.5031 80.3536 59.4413C80.1175 59.3794 79.8757 59.3485 79.6283 59.3485C79.4147 59.3485 79.2334 59.3808 79.0844 59.4455C78.9354 59.5101 78.8215 59.6015 78.7428 59.7196C78.6669 59.8348 78.629 59.9726 78.629 60.1328C78.629 60.3127 78.6725 60.4645 78.7597 60.5882C78.8496 60.7091 78.9874 60.8201 79.1729 60.9213C79.3613 61.0225 79.603 61.135 79.8982 61.2587C80.2383 61.3992 80.5265 61.5468 80.7626 61.7014C81.0016 61.856 81.1843 62.0416 81.3108 62.258C81.4373 62.4717 81.5005 62.7401 81.5005 63.0634Z" fill="white"/>
<path d="M72.0324 64.7417H68.541V58.5769H72.0324V59.4286H69.553V61.1027H71.8764V61.9502H69.553V63.8857H72.0324V64.7417Z" fill="white"/>
<path d="M62.6405 61.6508C62.6405 62.1259 62.5801 62.5588 62.4592 62.9496C62.3411 63.3375 62.1626 63.672 61.9237 63.9531C61.6847 64.2314 61.3853 64.4465 61.0255 64.5983C60.6657 64.7501 60.244 64.826 59.7605 64.826C59.2686 64.826 58.8413 64.7501 58.4786 64.5983C58.1188 64.4465 57.8194 64.23 57.5805 63.9489C57.3443 63.6678 57.1672 63.3319 57.0492 62.9411C56.9311 62.5504 56.8721 62.1175 56.8721 61.6424C56.8721 61.0071 56.9761 60.4533 57.1841 59.981C57.3949 59.5059 57.714 59.1377 58.1413 58.8762C58.5714 58.612 59.1139 58.4799 59.7689 58.4799C60.4099 58.4799 60.9426 58.6106 61.3671 58.872C61.7915 59.1335 62.1092 59.5017 62.32 59.9768C62.5337 60.4491 62.6405 61.0071 62.6405 61.6508ZM57.9347 61.6508C57.9347 62.1259 57.9993 62.5377 58.1286 62.8863C58.258 63.2321 58.4561 63.4991 58.7232 63.6875C58.9931 63.873 59.3388 63.9658 59.7605 63.9658C60.185 63.9658 60.5308 63.873 60.7978 63.6875C61.0649 63.4991 61.2616 63.2321 61.3882 62.8863C61.5147 62.5377 61.5779 62.1259 61.5779 61.6508C61.5779 60.9284 61.4331 60.3633 61.1436 59.9557C60.8568 59.5453 60.3986 59.3401 59.7689 59.3401C59.3473 59.3401 59.0001 59.4328 58.7274 59.6184C58.4575 59.8039 58.258 60.0696 58.1286 60.4153C57.9993 60.7583 57.9347 61.1701 57.9347 61.6508Z" fill="white"/>
<path d="M49.8444 64.7417H48.8282V59.4371H47.0234V58.5769H51.6449V59.4371H49.8444V64.7417Z" fill="white"/>
<path d="M41.5525 58.5769V62.5659C41.5525 62.996 41.4611 63.3811 41.2784 63.7212C41.0985 64.0614 40.8258 64.3312 40.4604 64.5308C40.0949 64.7276 39.6353 64.826 39.0815 64.826C38.2916 64.826 37.69 64.6194 37.2768 64.2061C36.8663 63.7901 36.6611 63.2377 36.6611 62.549V58.5769H37.6731V62.4604C37.6731 62.9749 37.794 63.3544 38.0358 63.5989C38.2775 63.8435 38.6388 63.9658 39.1195 63.9658C39.4512 63.9658 39.721 63.9082 39.9291 63.7929C40.1399 63.6748 40.2945 63.5034 40.3929 63.2785C40.4941 63.0508 40.5447 62.7767 40.5447 62.4562V58.5769H41.5525Z" fill="white"/>
<path d="M30.2452 64.7417L29.6422 63.0297H27.285L26.6821 64.7417H25.6152L27.9091 58.5516H29.0308L31.3204 64.7417H30.2452ZM29.3807 62.1611L28.7946 60.4744C28.7721 60.4013 28.7398 60.2987 28.6976 60.1666C28.6555 60.0316 28.6133 59.8953 28.5711 59.7576C28.529 59.617 28.4938 59.4989 28.4657 59.4033C28.4376 59.5186 28.4025 59.6479 28.3603 59.7913C28.3209 59.9318 28.2816 60.064 28.2422 60.1877C28.2057 60.3113 28.1776 60.4069 28.1579 60.4744L27.5676 62.1611H29.3807Z" fill="white"/>
<path d="M122.884 67.0356V67.1705H25.5967V67.0356H122.884Z" fill="white"/>
<defs>
<linearGradient id="paint0_linear_1106_1798" x1="75" y1="0" x2="75" y2="150" gradientUnits="userSpaceOnUse">
<stop stop-color="#05129A"/>
<stop offset="1" stop-color="#0A1AC7"/>
</linearGradient>
</defs>
</svg>
